<svg xmlns="http://www.w3.org/2000/svg" width="196" height="63" viewBox="0 0 196 63">
  <g id="Group_7718" data-name="Group 7718" transform="translate(-39 -287)">
    <text id="turnly" transform="translate(105 335)" fill="#1c2b33" font-size="48" font-family="DMSans-Medium, DM Sans" font-weight="500" letter-spacing="-0.016em"><tspan x="0" y="0">turnly</tspan></text>
    <g id="Group_7717" data-name="Group 7717">
      <rect id="Rectangle_2001" data-name="Rectangle 2001" width="56" height="56" rx="16" transform="translate(39 291)" fill="#faf9fb"/>
      <g id="_1" data-name="1" transform="translate(25.6 225.199)">
        <path id="Path_4546" data-name="Path 4546" d="M53.881,97.194A1.589,1.589,0,0,1,52.313,98.8H30.778a8.128,8.128,0,0,1-2.393-.351,8.537,8.537,0,0,1,0-16.294,8.248,8.248,0,0,1,2.393-.354H46.707A3.876,3.876,0,0,1,50.477,85H30.887a5.438,5.438,0,0,0-3.84,1.622A5.213,5.213,0,0,0,25.525,90.4a5.293,5.293,0,0,0,5.241,5.2H52.3a1.57,1.57,0,0,1,1.117.478A1.518,1.518,0,0,1,53.881,97.194Z" transform="translate(0)" fill="#5ace71"/>
        <path id="Path_4547" data-name="Path 4547" d="M110.093,146.8a8.544,8.544,0,0,1-5.986,8.147,8.233,8.233,0,0,1-2.392.351H85.786a3.874,3.874,0,0,1-3.769-3.2h19.589a5.439,5.439,0,0,0,3.841-1.625,5.273,5.273,0,0,0-3.72-8.979H80.205a1.605,1.605,0,0,1,0-3.21h21.523a8.111,8.111,0,0,1,2.391.351A8.581,8.581,0,0,1,110.093,146.8Z" transform="translate(-49.366 -49.621)" fill="#06615a"/>
        <circle id="Ellipse_60" data-name="Ellipse 60" cx="1.593" cy="1.593" r="1.593" transform="translate(24.793 104.089) rotate(-45)" fill="#06615a"/>
      </g>
    </g>
  </g>
</svg>
